# xmcd CD database file
#
# Track frame offsets:
#	150
#	12988
#	27821
#	39504
#	59442
#	74015
#	90083
#	99959
#	113039
#	129140
#	151583
#	167633
#	186401
#	198944
#	222412
#	236535
#	256766
#	279666
#	297052
#	312590
#
# Disc length: 4467 seconds
#
# Revision: 6
# Processed by: cddbd v1.5.2PL0 Copyright (c) Steve Scherf et al.
# Submitted via: CDex 1.70beta2
#
DISCID=0c117114
DTITLE=Jane Birkin - Live Au Bataclan
DYEAR=1987
DGENRE=Live
TTITLE0=Jane B
TTITLE1=Di Doo Dah
TTITLE2=Norma Jean Baker
TTITLE3=Love For Sale
TTITLE4=Ballade de Johnny Jane
TTITLE5=Ex fan des sixties
TTITLE6=Les dessous chics
TTITLE7=Physique et sans issue
TTITLE8=Baby Alone In Babylone
TTITLE9=Avec le temps
TTITLE10=Le Moi et le Je
TTITLE11=Nicotine
TTITLE12=L'amour de moi
TTITLE13=Quoi
TTITLE14=Yesterday Yes A Day
TTITLE15=Lost Song
TTITLE16=Baby Lou
TTITLE17=Rocking Chair
TTITLE18=Fuir le bonheur de peur qu'il ne se sauve
TTITLE19=Le couteau dans le Play
EXTD=YEAR: 1987
EXTT0=
EXTT1=
EXTT2=
EXTT3=
EXTT4=
EXTT5=
EXTT6=
EXTT7=
EXTT8=
EXTT9=
EXTT10=
EXTT11=
EXTT12=
EXTT13=
EXTT14=
EXTT15=
EXTT16=
EXTT17=
EXTT18=
EXTT19=
PLAYORDER=
